<?xml version="1.0" encoding="UTF-8" standalone="no"?>
<!-- Created with Inkscape (http://www.inkscape.org/) -->

<svg
   xmlns:dc="http://purl.org/dc/elements/1.1/"
   xmlns:cc="http://creativecommons.org/ns#"
   xmlns:rdf="http://www.w3.org/1999/02/22-rdf-syntax-ns#"
   xmlns:svg="http://www.w3.org/2000/svg"
   xmlns="http://www.w3.org/2000/svg"
   xmlns:sodipodi="http://sodipodi.sourceforge.net/DTD/sodipodi-0.dtd"
   xmlns:inkscape="http://www.inkscape.org/namespaces/inkscape"
   width="302.75061mm"
   height="84.881927mm"
   viewBox="0 0 1072.7384 300.76273"
   id="svg2"
   version="1.1"
   inkscape:version="0.91 r13725"
   sodipodi:docname="attributes.svg">
  <defs
     id="defs4" />
  <sodipodi:namedview
     id="base"
     pagecolor="#2e2e2e"
     bordercolor="#666666"
     borderopacity="1.0"
     inkscape:pageopacity="0"
     inkscape:pageshadow="2"
     inkscape:zoom="0.7"
     inkscape:cx="503.77469"
     inkscape:cy="202.02772"
     inkscape:document-units="px"
     inkscape:current-layer="layer1"
     showgrid="false"
     inkscape:window-width="1425"
     inkscape:window-height="955"
     inkscape:window-x="366"
     inkscape:window-y="27"
     inkscape:window-maximized="0"
     fit-margin-top="5"
     fit-margin-left="5"
     fit-margin-right="5"
     fit-margin-bottom="5" />
  <metadata
     id="metadata7">
    <rdf:RDF>
      <cc:Work
         rdf:about="">
        <dc:format>image/svg+xml</dc:format>
        <dc:type
           rdf:resource="http://purl.org/dc/dcmitype/StillImage" />
        <dc:title></dc:title>
      </cc:Work>
    </rdf:RDF>
  </metadata>
  <g
     inkscape:label="Layer 1"
     inkscape:groupmode="layer"
     id="layer1"
     transform="translate(9.3692196,-304.03905)">
    <rect
       style="fill:#ffffff;fill-opacity:0.34810126;stroke:#000000;stroke-width:0.99999994;stroke-linecap:butt;stroke-miterlimit:4;stroke-dasharray:none;stroke-dashoffset:0;stroke-opacity:1"
       id="rect4267-2"
       width="199.44821"
       height="203.0704"
       x="636.49017"
       y="322.25558" />
    <rect
       style="fill:#ffffff;fill-opacity:0.34810126;stroke:#000000;stroke-width:0.99999994;stroke-linecap:butt;stroke-miterlimit:4;stroke-dasharray:none;stroke-dashoffset:0;stroke-opacity:1"
       id="rect4267-2-5"
       width="199.44821"
       height="203.0704"
       x="427.27591"
       y="322.25558" />
    <rect
       style="fill:#ffffff;fill-opacity:0.34810126;stroke:#000000;stroke-width:0.99999994;stroke-linecap:butt;stroke-miterlimit:4;stroke-dasharray:none;stroke-dashoffset:0;stroke-opacity:1"
       id="rect4267-2-9"
       width="199.44821"
       height="203.0704"
       x="218.06158"
       y="322.25558" />
    <rect
       style="fill:#ffffff;fill-opacity:0.34810126;stroke:#000000;stroke-width:0.99999994;stroke-linecap:butt;stroke-miterlimit:4;stroke-dasharray:none;stroke-dashoffset:0;stroke-opacity:1"
       id="rect4267-2-7"
       width="199.44821"
       height="203.0704"
       x="8.8473158"
       y="322.25558" />
    <rect
       style="fill:#ffffff;fill-opacity:0.34810126;stroke:#000000;stroke-width:0.99999994;stroke-linecap:butt;stroke-miterlimit:4;stroke-dasharray:none;stroke-dashoffset:0;stroke-opacity:1"
       id="rect4267-2-8"
       width="199.44821"
       height="203.0704"
       x="845.70447"
       y="322.25558" />
    <path
       style="fill:none;fill-rule:evenodd;stroke:#000000;stroke-width:2;stroke-linecap:butt;stroke-linejoin:miter;stroke-miterlimit:4;stroke-dasharray:6, 6;stroke-dashoffset:0;stroke-opacity:1"
       d="m 38.673686,464.00207 c -0.492723,-1.09954 18.432458,-30.35587 21.458651,-31.70973 3.026198,-1.35388 26.016336,-21.53907 26.016336,-21.53907 0,0 -12.137375,-28.55911 -11.804769,-30.02789 0.332606,-1.46877 -2.048767,-21.52287 -2.048767,-21.52287 l 4.972514,-5.85454 5.403564,6.16232 10.380087,12.8457 13.874268,25.80209 35.92008,-3.86038 35.43136,7.57799 -0.48454,1.86674 -61.06177,20.71825 14.42031,35.12758 24.8253,12.65296 -52.33635,21.76452 13.36551,-25.44905 -19.257277,-35.60353 z"
       id="path4146"
       inkscape:connector-curvature="0" />
    <ellipse
       style="fill:#e87722;fill-opacity:1;stroke:none;stroke-width:1;stroke-linecap:butt;stroke-miterlimit:4;stroke-dasharray:1, 3;stroke-dashoffset:0;stroke-opacity:1"
       id="path4163"
       cx="108.51274"
       cy="423.77213"
       rx="5.9146242"
       ry="5.909616" />
    <path
       style="fill:none;fill-rule:evenodd;stroke:#000000;stroke-width:2;stroke-linecap:butt;stroke-linejoin:miter;stroke-miterlimit:4;stroke-dasharray:6, 6;stroke-dashoffset:0;stroke-opacity:1"
       d="m 247.94667,464.00207 c -0.49273,-1.09953 18.43245,-30.35586 21.45864,-31.70973 3.0262,-1.35387 26.01634,-21.53907 26.01634,-21.53907 0,0 -12.13738,-28.55911 -11.80477,-30.02788 0.33261,-1.46878 -2.04877,-21.52288 -2.04877,-21.52288 l 4.97252,-5.85454 5.40356,6.16232 10.38009,12.8457 13.87426,25.8021 35.92008,-3.86039 35.43137,7.57799 -0.48454,1.86674 -61.06177,20.71825 14.4203,35.12758 24.82531,12.65297 -52.33635,21.76451 13.3655,-25.44905 -19.25727,-35.60353 z"
       id="path4146-6"
       inkscape:connector-curvature="0" />
    <rect
       style="fill:none;fill-opacity:1;stroke:#e87722;stroke-width:1;stroke-linecap:butt;stroke-miterlimit:4;stroke-dasharray:none;stroke-dashoffset:0;stroke-opacity:1"
       id="rect4165"
       width="140.26109"
       height="140.98656"
       x="247.65517"
       y="353.27884" />
    <path
       style="fill:none;fill-rule:evenodd;stroke:#000000;stroke-width:2;stroke-linecap:butt;stroke-linejoin:miter;stroke-miterlimit:4;stroke-dasharray:6, 6;stroke-dashoffset:0;stroke-opacity:1"
       d="m 457.25088,456.24849 c -0.48191,-1.10431 18.72952,-30.1738 21.76885,-31.49795 3.03935,-1.32415 26.2265,-21.28311 26.2265,-21.28311 0,0 -11.85649,-28.67667 -11.50948,-30.14211 0.34701,-1.46544 -1.83742,-21.54192 -1.83742,-21.54192 l 5.02974,-5.80553 5.34282,6.21497 10.2535,12.9468 13.62036,25.93679 35.95624,-3.50824 35.35528,7.92481 -0.50284,1.86189 -61.26218,20.11895 14.07482,35.26718 24.69993,12.89562 -52.54746,21.25065 13.61465,-25.31687 -18.90689,-35.79051 z"
       id="path4146-6-5"
       inkscape:connector-curvature="0" />
    <rect
       style="fill:none;fill-opacity:1;stroke:#e87722;stroke-width:1.00000012;stroke-linecap:butt;stroke-miterlimit:4;stroke-dasharray:none;stroke-dashoffset:0;stroke-opacity:1"
       id="rect4165-3"
       width="117.43423"
       height="124.11603"
       x="586.84302"
       y="139.75887"
       transform="matrix(0.93079212,0.36554893,-0.36608578,0.93058111,0,0)" />
    <path
       style="fill:none;fill-rule:evenodd;stroke:#000000;stroke-width:2;stroke-linecap:butt;stroke-linejoin:miter;stroke-miterlimit:4;stroke-dasharray:6, 6;stroke-dashoffset:0;stroke-opacity:1"
       d="m 672.2957,468.84372 c -0.47883,-1.10564 18.81356,-30.12155 21.85656,-31.43723 3.04304,-1.3157 26.28573,-21.21006 26.28573,-21.21006 0,0 -11.77648,-28.70955 -11.42542,-30.17402 0.3511,-1.46446 -1.77736,-21.54694 -1.77736,-21.54694 l 5.0459,-5.79152 5.32547,6.22982 10.21738,12.97528 13.548,25.97459 35.96588,-3.40816 35.33306,8.02316 -0.50803,1.86049 -61.31803,19.94839 13.97647,35.30621 24.66388,12.96429 -52.60648,21.10434 13.68516,-25.27887 -18.80705,-35.84298 z"
       id="path4146-6-5-6"
       inkscape:connector-curvature="0" />
    <rect
       style="fill:none;fill-opacity:1;stroke:#e87722;stroke-width:1.00000012;stroke-linecap:butt;stroke-miterlimit:4;stroke-dasharray:none;stroke-dashoffset:0;stroke-opacity:1"
       id="rect4225"
       width="150.38223"
       height="142.69232"
       x="445.85464"
       y="599.25574"
       transform="matrix(0.92583106,-0.37793763,0.37848675,0.92560671,0,0)" />
    <path
       style="fill:#0000ff;fill-opacity:1;fill-rule:evenodd;stroke:none;stroke-width:1;stroke-linecap:butt;stroke-linejoin:miter;stroke-miterlimit:4;stroke-dasharray:1, 3;stroke-dashoffset:0;stroke-opacity:1"
       d="m 875.46291,464.00206 c -0.49273,-1.09953 18.43245,-30.35586 21.45865,-31.70973 3.02619,-1.35388 26.01634,-21.53907 26.01634,-21.53907 0,0 -12.13738,-28.55911 -11.80477,-30.02788 0.3326,-1.46878 -2.04877,-21.52288 -2.04877,-21.52288 l 4.97251,-5.85453 5.40357,6.16231 10.38009,12.8457 13.87426,25.8021 35.92008,-3.86039 35.43143,7.57799 -0.4846,1.86674 -61.06177,20.71825 14.4203,35.12758 24.82531,12.65297 -52.33636,21.76451 13.36551,-25.44905 -19.25727,-35.60353 z"
       id="path4146-9"
       inkscape:connector-curvature="0" />
    <path
       style="fill:#e87722;fill-rule:evenodd;stroke:#000000;stroke-width:2;stroke-linecap:butt;stroke-linejoin:miter;stroke-miterlimit:4;stroke-dasharray:6, 6;stroke-dashoffset:0;stroke-opacity:1;fill-opacity:1"
       d="m 875.53085,464.00206 c -0.49273,-1.09953 18.43245,-30.35586 21.45865,-31.70973 3.02619,-1.35388 26.01633,-21.53907 26.01633,-21.53907 0,0 -12.13737,-28.55911 -11.80477,-30.02788 0.3326,-1.46878 -2.04876,-21.52288 -2.04876,-21.52288 l 4.97251,-5.85453 5.40357,6.16231 10.38008,12.8457 13.87427,25.8021 35.92008,-3.86039 35.43139,7.57799 -0.4845,1.86674 -61.06184,20.71825 14.42031,35.12758 24.82531,12.65297 -52.33636,21.76451 13.36551,-25.44905 -19.25728,-35.60353 z"
       id="path4146-9-1"
       inkscape:connector-curvature="0" />
    <text
       xml:space="preserve"
       style="font-style:normal;font-variant:normal;font-weight:normal;font-stretch:normal;font-size:17.5px;line-height:125%;font-family:FreeSans;-inkscape-font-specification:'FreeSans, Normal';text-align:start;letter-spacing:0px;word-spacing:0px;writing-mode:lr-tb;text-anchor:start;fill:#ffffff;fill-opacity:1;stroke:none;stroke-width:1px;stroke-linecap:butt;stroke-linejoin:miter;stroke-opacity:1"
       x="61.119762"
       y="554.05524"
       id="text4269"
       sodipodi:linespacing="125%"><tspan
         style="font-style:normal;font-variant:normal;font-weight:normal;font-stretch:normal;font-size:17.5px;line-height:125%;font-family:FreeSans;-inkscape-font-specification:'FreeSans, Normal';text-align:start;writing-mode:lr-tb;text-anchor:start;fill:#ffffff"
         sodipodi:role="line"
         id="tspan4271"
         x="61.119762"
         y="554.05524">Center Point</tspan></text>
    <text
       xml:space="preserve"
       style="font-style:normal;font-variant:normal;font-weight:normal;font-stretch:normal;font-size:17.5px;line-height:125%;font-family:FreeSans;-inkscape-font-specification:'FreeSans, Normal';text-align:center;letter-spacing:0px;word-spacing:0px;writing-mode:lr-tb;text-anchor:middle;fill:#ffffff;fill-opacity:1;stroke:none;stroke-width:1px;stroke-linecap:butt;stroke-linejoin:miter;stroke-opacity:1"
       x="317.17813"
       y="554.05524"
       id="text4269-0"
       sodipodi:linespacing="125%"><tspan
         style="font-style:normal;font-variant:normal;font-weight:normal;font-stretch:normal;font-size:17.5px;line-height:125%;font-family:FreeSans;-inkscape-font-specification:'FreeSans, Normal';text-align:center;writing-mode:lr-tb;text-anchor:middle;fill:#ffffff"
         sodipodi:role="line"
         id="tspan4271-5"
         x="317.17813"
         y="554.05524">Geographic</tspan><tspan
         style="font-style:normal;font-variant:normal;font-weight:normal;font-stretch:normal;font-size:17.5px;line-height:125%;font-family:FreeSans;-inkscape-font-specification:'FreeSans, Normal';text-align:center;writing-mode:lr-tb;text-anchor:middle;fill:#ffffff"
         sodipodi:role="line"
         x="317.17813"
         y="575.93024"
         id="tspan4346">Bounding Box</tspan></text>
    <text
       xml:space="preserve"
       style="font-style:normal;font-variant:normal;font-weight:normal;font-stretch:normal;font-size:17.5px;line-height:125%;font-family:FreeSans;-inkscape-font-specification:'FreeSans, Normal';text-align:center;letter-spacing:0px;word-spacing:0px;writing-mode:lr-tb;text-anchor:middle;fill:#ffffff;fill-opacity:1;stroke:none;stroke-width:1px;stroke-linecap:butt;stroke-linejoin:miter;stroke-opacity:1"
       x="526.82153"
       y="554.05524"
       id="text4269-0-4"
       sodipodi:linespacing="125%"><tspan
         style="font-style:normal;font-variant:normal;font-weight:normal;font-stretch:normal;font-size:17.5px;line-height:125%;font-family:FreeSans;-inkscape-font-specification:'FreeSans, Normal';text-align:center;writing-mode:lr-tb;text-anchor:middle;fill:#ffffff"
         sodipodi:role="line"
         id="tspan4271-5-0"
         x="526.82153"
         y="554.05524">Minimum Oriented</tspan><tspan
         style="font-style:normal;font-variant:normal;font-weight:normal;font-stretch:normal;font-size:17.5px;line-height:125%;font-family:FreeSans;-inkscape-font-specification:'FreeSans, Normal';text-align:center;writing-mode:lr-tb;text-anchor:middle;fill:#ffffff"
         id="tspan4334"
         sodipodi:role="line"
         x="526.82153"
         y="575.93024">Bounding Box</tspan></text>
    <text
       xml:space="preserve"
       style="font-style:normal;font-variant:normal;font-weight:normal;font-stretch:normal;font-size:17.5px;line-height:125%;font-family:FreeSans;-inkscape-font-specification:'FreeSans, Normal';text-align:start;letter-spacing:0px;word-spacing:0px;writing-mode:lr-tb;text-anchor:start;fill:#ffffff;fill-opacity:1;stroke:none;stroke-width:1px;stroke-linecap:butt;stroke-linejoin:miter;stroke-opacity:1"
       x="693.57208"
       y="553.78522"
       id="text4269-8"
       sodipodi:linespacing="125%"><tspan
         style="font-style:normal;font-variant:normal;font-weight:normal;font-stretch:normal;font-size:17.5px;line-height:125%;font-family:FreeSans;-inkscape-font-specification:'FreeSans, Normal';text-align:start;writing-mode:lr-tb;text-anchor:start;fill:#ffffff"
         sodipodi:role="line"
         id="tspan4271-8"
         x="693.57208"
         y="553.78522">#Frontness</tspan></text>
    <text
       xml:space="preserve"
       style="font-style:normal;font-variant:normal;font-weight:normal;font-stretch:normal;font-size:17.5px;line-height:125%;font-family:FreeSans;-inkscape-font-specification:'FreeSans, Normal';text-align:start;letter-spacing:0px;word-spacing:0px;writing-mode:lr-tb;text-anchor:start;fill:#ffffff;fill-opacity:1;stroke:none;stroke-width:1px;stroke-linecap:butt;stroke-linejoin:miter;stroke-opacity:1"
       x="892.77826"
       y="554.05524"
       id="text4269-8-5"
       sodipodi:linespacing="125%"><tspan
         style="font-style:normal;font-variant:normal;font-weight:normal;font-stretch:normal;font-size:17.5px;line-height:125%;font-family:FreeSans;-inkscape-font-specification:'FreeSans, Normal';text-align:start;writing-mode:lr-tb;text-anchor:start;fill:#ffffff"
         sodipodi:role="line"
         id="tspan4271-8-3"
         x="892.77826"
         y="554.05524">Segmentation</tspan></text>
  </g>
</svg>
