<?xml version="1.0" encoding="UTF-8" standalone="no"?>
<!-- Created with Inkscape (http://www.inkscape.org/) -->

<svg
   xmlns:dc="http://purl.org/dc/elements/1.1/"
   xmlns:cc="http://creativecommons.org/ns#"
   xmlns:rdf="http://www.w3.org/1999/02/22-rdf-syntax-ns#"
   xmlns:svg="http://www.w3.org/2000/svg"
   xmlns="http://www.w3.org/2000/svg"
   xmlns:sodipodi="http://sodipodi.sourceforge.net/DTD/sodipodi-0.dtd"
   xmlns:inkscape="http://www.inkscape.org/namespaces/inkscape"
   width="302.75061mm"
   height="84.881927mm"
   viewBox="0 0 1072.7384 300.76273"
   id="svg2"
   version="1.1"
   inkscape:version="0.91 r13725"
   sodipodi:docname="frontness.svg">
  <defs
     id="defs4" />
  <sodipodi:namedview
     id="base"
     pagecolor="#2e2e2e"
     bordercolor="#666666"
     borderopacity="1.0"
     inkscape:pageopacity="0"
     inkscape:pageshadow="2"
     inkscape:zoom="0.9899495"
     inkscape:cx="438.37829"
     inkscape:cy="152.77106"
     inkscape:document-units="px"
     inkscape:current-layer="layer1"
     showgrid="false"
     inkscape:window-width="1863"
     inkscape:window-height="1059"
     inkscape:window-x="57"
     inkscape:window-y="21"
     inkscape:window-maximized="1"
     fit-margin-top="5"
     fit-margin-left="5"
     fit-margin-right="5"
     fit-margin-bottom="5" />
  <metadata
     id="metadata7">
    <rdf:RDF>
      <cc:Work
         rdf:about="">
        <dc:format>image/svg+xml</dc:format>
        <dc:type
           rdf:resource="http://purl.org/dc/dcmitype/StillImage" />
        <dc:title />
      </cc:Work>
    </rdf:RDF>
  </metadata>
  <g
     inkscape:label="Layer 1"
     inkscape:groupmode="layer"
     id="layer1"
     transform="translate(9.3692196,-304.03905)">
    <g
       id="g4172"
       transform="translate(103.75193,0)">
      <rect
         y="322.25558"
         x="636.49017"
         height="203.0704"
         width="199.44821"
         id="rect4267-2"
         style="fill:#ffffff;fill-opacity:0.34810127;stroke:#000000;stroke-width:0.99999994;stroke-linecap:butt;stroke-miterlimit:4;stroke-dasharray:none;stroke-dashoffset:0;stroke-opacity:1" />
      <rect
         y="322.25558"
         x="427.27591"
         height="203.0704"
         width="199.44821"
         id="rect4267-2-5"
         style="fill:#ffffff;fill-opacity:0.34810127;stroke:#000000;stroke-width:0.99999994;stroke-linecap:butt;stroke-miterlimit:4;stroke-dasharray:none;stroke-dashoffset:0;stroke-opacity:1" />
      <rect
         y="322.25558"
         x="218.06158"
         height="203.0704"
         width="199.44821"
         id="rect4267-2-9"
         style="fill:#ffffff;fill-opacity:0.34810127;stroke:#000000;stroke-width:0.99999994;stroke-linecap:butt;stroke-miterlimit:4;stroke-dasharray:none;stroke-dashoffset:0;stroke-opacity:1" />
      <rect
         y="322.25558"
         x="8.8473158"
         height="203.0704"
         width="199.44821"
         id="rect4267-2-7"
         style="fill:#ffffff;fill-opacity:0.34810127;stroke:#000000;stroke-width:0.99999994;stroke-linecap:butt;stroke-miterlimit:4;stroke-dasharray:none;stroke-dashoffset:0;stroke-opacity:1" />
      <path
         inkscape:connector-curvature="0"
         id="path4146"
         d="m 38.673686,464.00207 c -0.492723,-1.09954 18.432458,-30.35587 21.458651,-31.70973 3.026198,-1.35388 26.016336,-21.53907 26.016336,-21.53907 0,0 -12.137375,-28.55911 -11.804769,-30.02789 0.332606,-1.46877 -2.048767,-21.52287 -2.048767,-21.52287 l 4.972514,-5.85454 5.403564,6.16232 10.380087,12.8457 13.874268,25.80209 35.92008,-3.86038 35.43136,7.57799 -0.48454,1.86674 -61.06177,20.71825 14.42031,35.12758 24.8253,12.65296 -52.33635,21.76452 13.36551,-25.44905 -19.257277,-35.60353 z"
         style="fill:none;fill-rule:evenodd;stroke:#000000;stroke-width:2;stroke-linecap:butt;stroke-linejoin:miter;stroke-miterlimit:4;stroke-dasharray:6, 6;stroke-dashoffset:0;stroke-opacity:1" />
      <path
         inkscape:connector-curvature="0"
         id="path4146-6-5-6"
         d="m 654.21448,442.70158 c -0.47883,-1.10564 18.81356,-30.12155 21.85656,-31.43723 3.04304,-1.3157 26.28573,-21.21006 26.28573,-21.21006 0,0 -11.77648,-28.70955 -11.42542,-30.17402 0.3511,-1.46446 -1.77736,-21.54694 -1.77736,-21.54694 l 5.0459,-5.79152 5.32547,6.22982 10.21738,12.97528 13.548,25.97459 35.96588,-3.40816 35.33306,8.02316 -0.50803,1.86049 -61.31803,19.94839 13.97647,35.30621 24.66388,12.96429 -52.60648,21.10434 13.68516,-25.27887 -18.80705,-35.84298 z"
         style="fill:none;fill-rule:evenodd;stroke:#000000;stroke-width:2;stroke-linecap:butt;stroke-linejoin:miter;stroke-miterlimit:4;stroke-dasharray:6, 6;stroke-dashoffset:0;stroke-opacity:1" />
      <text
         sodipodi:linespacing="125%"
         id="text4269"
         y="554.05524"
         x="108.60902"
         style="font-style:normal;font-variant:normal;font-weight:normal;font-stretch:normal;font-size:17.5px;line-height:125%;font-family:FreeSans;-inkscape-font-specification:'FreeSans, Normal';text-align:center;letter-spacing:0px;word-spacing:0px;writing-mode:lr-tb;text-anchor:middle;fill:#ffffff;fill-opacity:1;stroke:none;stroke-width:1px;stroke-linecap:butt;stroke-linejoin:miter;stroke-opacity:1"
         xml:space="preserve"><tspan
           y="554.05524"
           x="108.60902"
           id="tspan4271"
           sodipodi:role="line"
           style="font-style:normal;font-variant:normal;font-weight:normal;font-stretch:normal;font-size:17.5px;line-height:125%;font-family:FreeSans;-inkscape-font-specification:'FreeSans, Normal';text-align:center;writing-mode:lr-tb;text-anchor:middle;fill:#ffffff">Axis of Greatest</tspan><tspan
           id="tspan4879"
           y="575.93024"
           x="108.60902"
           sodipodi:role="line"
           style="font-style:normal;font-variant:normal;font-weight:normal;font-stretch:normal;font-size:17.5px;line-height:125%;font-family:FreeSans;-inkscape-font-specification:'FreeSans, Normal';text-align:center;writing-mode:lr-tb;text-anchor:middle;fill:#ffffff">Symmetry</tspan></text>
      <text
         sodipodi:linespacing="125%"
         id="text4269-0"
         y="554.05524"
         x="317.17813"
         style="font-style:normal;font-variant:normal;font-weight:normal;font-stretch:normal;font-size:17.5px;line-height:125%;font-family:FreeSans;-inkscape-font-specification:'FreeSans, Normal';text-align:center;letter-spacing:0px;word-spacing:0px;writing-mode:lr-tb;text-anchor:middle;fill:#ffffff;fill-opacity:1;stroke:none;stroke-width:1px;stroke-linecap:butt;stroke-linejoin:miter;stroke-opacity:1"
         xml:space="preserve"><tspan
           id="tspan4346"
           y="554.05524"
           x="317.17813"
           sodipodi:role="line"
           style="font-style:normal;font-variant:normal;font-weight:normal;font-stretch:normal;font-size:17.5px;line-height:125%;font-family:FreeSans;-inkscape-font-specification:'FreeSans, Normal';text-align:center;writing-mode:lr-tb;text-anchor:middle;fill:#ffffff">Maximum Diameter</tspan></text>
      <text
         sodipodi:linespacing="125%"
         id="text4269-0-4"
         y="554.05524"
         x="526.82153"
         style="font-style:normal;font-variant:normal;font-weight:normal;font-stretch:normal;font-size:17.5px;line-height:125%;font-family:FreeSans;-inkscape-font-specification:'FreeSans, Normal';text-align:center;letter-spacing:0px;word-spacing:0px;writing-mode:lr-tb;text-anchor:middle;fill:#ffffff;fill-opacity:1;stroke:none;stroke-width:1px;stroke-linecap:butt;stroke-linejoin:miter;stroke-opacity:1"
         xml:space="preserve"><tspan
           y="554.05524"
           x="526.82153"
           id="tspan4271-5-0"
           sodipodi:role="line"
           style="font-style:normal;font-variant:normal;font-weight:normal;font-stretch:normal;font-size:17.5px;line-height:125%;font-family:FreeSans;-inkscape-font-specification:'FreeSans, Normal';text-align:center;writing-mode:lr-tb;text-anchor:middle;fill:#ffffff">Minimum Oriented</tspan><tspan
           y="575.93024"
           x="526.82153"
           sodipodi:role="line"
           id="tspan4334"
           style="font-style:normal;font-variant:normal;font-weight:normal;font-stretch:normal;font-size:17.5px;line-height:125%;font-family:FreeSans;-inkscape-font-specification:'FreeSans, Normal';text-align:center;writing-mode:lr-tb;text-anchor:middle;fill:#ffffff">Bounding Box</tspan></text>
      <text
         sodipodi:linespacing="125%"
         id="text4269-8"
         y="553.78522"
         x="656.35205"
         style="font-style:normal;font-variant:normal;font-weight:normal;font-stretch:normal;font-size:17.5px;line-height:125%;font-family:FreeSans;-inkscape-font-specification:'FreeSans, Normal';text-align:start;letter-spacing:0px;word-spacing:0px;writing-mode:lr-tb;text-anchor:start;fill:#ffffff;fill-opacity:1;stroke:none;stroke-width:1px;stroke-linecap:butt;stroke-linejoin:miter;stroke-opacity:1"
         xml:space="preserve"><tspan
           y="553.78522"
           x="656.35205"
           id="tspan4271-8"
           sodipodi:role="line"
           style="font-style:normal;font-variant:normal;font-weight:normal;font-stretch:normal;font-size:17.5px;line-height:125%;font-family:FreeSans;-inkscape-font-specification:'FreeSans, Normal';text-align:start;writing-mode:lr-tb;text-anchor:start;fill:#ffffff">Principle Component</tspan></text>
      <path
         inkscape:connector-curvature="0"
         id="path4862"
         d="M 66.392221,335.11136 140.13336,503.80684"
         style="fill:none;fill-rule:evenodd;stroke:#e87722;stroke-width:1px;stroke-linecap:butt;stroke-linejoin:miter;stroke-opacity:1" />
      <path
         sodipodi:nodetypes="cccccccccccssscc"
         inkscape:connector-curvature="0"
         id="path4885"
         d="m 334.08264,499.74592 -47.47717,-20.20305 -15.34556,-25.73883 -1.82702,-25.77895 11.6459,-27.20361 -21.74743,-8.15173 26.26396,-39.39595 2.02031,-6.06091 42.4264,16.16243 -15.15229,31.31474 23.13856,11.81368 c 0,0 16.76751,21.54154 17.26754,23.54166 1.01015,4.04061 9.09138,13.13198 10.10153,17.17259 1.01016,4.04061 -6.06091,13.13198 -7.07107,17.17259 -1.01015,4.04061 -11.11167,20.20305 -11.11167,20.20305 z"
         style="fill:none;fill-rule:evenodd;stroke:#000000;stroke-width:2;stroke-linecap:butt;stroke-linejoin:miter;stroke-miterlimit:4;stroke-dasharray:8, 8;stroke-dashoffset:0;stroke-opacity:1" />
      <ellipse
         ry="77.958542"
         rx="79.296982"
         cy="424.18161"
         cx="313.43546"
         id="path4881"
         style="fill:none;fill-opacity:1;stroke:#e87722;stroke-width:1;stroke-linecap:butt;stroke-miterlimit:4;stroke-dasharray:none;stroke-dashoffset:0;stroke-opacity:1" />
      <circle
         r="7.0710678"
         cy="349.23318"
         cx="289.63593"
         id="path4887"
         style="fill:#e87722;fill-opacity:1;stroke:none;stroke-width:2;stroke-linecap:butt;stroke-miterlimit:4;stroke-dasharray:8, 8;stroke-dashoffset:0;stroke-opacity:1" />
      <circle
         r="7.0710678"
         cy="498.75607"
         cx="334.06235"
         id="path4887-8"
         style="fill:#e87722;fill-opacity:1;stroke:none;stroke-width:2;stroke-linecap:butt;stroke-miterlimit:4;stroke-dasharray:8, 8;stroke-dashoffset:0;stroke-opacity:1" />
      <path
         inkscape:connector-curvature="0"
         id="path4904"
         d="m 559.27393,461.16168 -40.32418,13.34325 -36.24199,-102.18424 48.59202,-14.35833 33.11062,102.81553 z"
         style="fill:none;fill-rule:evenodd;stroke:#000000;stroke-width:2;stroke-linecap:butt;stroke-linejoin:miter;stroke-miterlimit:4;stroke-dasharray:8, 8;stroke-dashoffset:0;stroke-opacity:1" />
      <rect
         transform="matrix(0.94105769,-0.3382461,0.3382461,0.94105769,0,0)"
         y="510.08548"
         x="325.25406"
         height="116.16754"
         width="54.548237"
         id="rect4906"
         style="fill:none;fill-opacity:1;stroke:#e87722;stroke-width:1;stroke-linecap:butt;stroke-miterlimit:4;stroke-dasharray:none;stroke-dashoffset:0;stroke-opacity:1" />
      <path
         inkscape:connector-curvature="0"
         id="path4908"
         d="m 692.6868,532.07081 c 3.45825,1.55165 3.29466,-2.15241 5.05076,-3.03046 0.30117,-0.15059 0.70898,0.15058 1.01015,0 0.42592,-0.21296 0.61394,-0.74601 1.01015,-1.01015 0.62647,-0.41765 1.39384,-0.59251 2.02031,-1.01016 0.39621,-0.26414 0.61394,-0.74601 1.01015,-1.01015 0.62647,-0.41764 1.39384,-0.5925 2.02031,-1.01015 0.91955,-0.61304 2.13512,-2.58279 3.03045,-3.03046 0.60234,-0.30117 1.41797,0.30117 2.02031,0 0.42592,-0.21296 0.58423,-0.79719 1.01015,-1.01015 0.60234,-0.30117 1.41797,0.30117 2.02031,0 3.35025,-3.35026 -0.95238,0.47619 2.0203,-1.01015 0.42592,-0.21296 0.58424,-0.7972 1.01015,-1.01016 0.60234,-0.30117 1.41797,0.30117 2.02031,0 0.42592,-0.21295 0.58423,-0.79719 1.01015,-1.01015 0.30117,-0.15058 0.69072,0.10648 1.01015,0 0.71429,-0.23809 1.30602,-0.77206 2.02031,-1.01015 0.95737,-0.31912 4.09339,0.31912 5.05076,0 0.71429,-0.2381 1.28986,-0.82754 2.02031,-1.01015 0.65333,-0.16334 1.34687,0 2.0203,0 0.67344,0 1.34687,0 2.02031,0 0.33672,0 0.69071,0.10648 1.01015,0 0.71429,-0.2381 1.28986,-0.82755 2.02031,-1.01016 0.89017,-0.22254 5.4633,0.29881 6.06091,0 0.42592,-0.21295 0.58424,-0.79719 1.01015,-1.01015 0.60234,-0.30117 1.41797,0.30117 2.02031,0 0.42592,-0.21296 0.58423,-0.79719 1.01015,-1.01015 0.60234,-0.30117 1.41797,0.30117 2.02031,0 0.42591,-0.21296 0.67343,-0.67344 1.01015,-1.01015 0.33672,-0.33672 0.67343,-0.67344 1.01015,-1.01016 1.68359,-1.68358 3.36718,-3.36717 5.05076,-5.05076 0.33672,-0.33672 0.67344,-0.67343 1.01016,-1.01015 0.33671,-0.33672 0.79719,-0.58424 1.01015,-1.01015 0.15058,-0.30117 -0.15059,-0.70899 0,-1.01016 0.21296,-0.42591 0.79719,-0.58423 1.01015,-1.01015 0.30117,-0.60234 -0.30117,-1.41797 0,-2.0203 0.21296,-0.42592 0.7972,-0.58424 1.01015,-1.01016 0.30117,-0.60234 -0.30117,-1.41796 0,-2.0203 0.21296,-0.42592 0.7972,-0.58424 1.01016,-1.01015 0.40406,-0.80813 -0.40406,-2.22234 0,-3.03046 0.21296,-0.42592 0.79719,-0.58424 1.01015,-1.01015 0.30117,-0.60234 -0.30117,-1.41797 0,-2.02031 0.21296,-0.42592 0.67343,-1.34687 1.01015,-1.01015 0.33672,0.33672 -1.34687,0.67343 -1.01015,1.01015 0.47619,0.47619 1.38143,-0.21296 2.0203,0 0.90351,0.30117 1.16847,1.59439 2.02031,2.02031 0.30117,0.15058 0.70898,-0.15059 1.01015,0 0.42592,0.21295 0.67344,0.67343 1.01015,1.01015 0.33672,0.33672 1.34687,0.67343 1.01016,1.01015 -0.33672,0.33672 -1.34687,-1.34687 -1.01016,-1.01015 0.67344,0.67343 1.34687,1.34687 2.02031,2.0203 0.33672,0.33672 0.58423,0.7972 1.01015,1.01016 0.30117,0.15058 0.70899,-0.15059 1.01015,0 0.85184,0.42591 1.16847,1.59438 2.02031,2.0203 0.60234,0.30117 1.41797,-0.30117 2.0203,0 0.85184,0.42592 1.16847,1.59439 2.02031,2.02031 0.30117,0.15058 0.70898,-0.15059 1.01015,0 4.62307,2.31153 -4.2865,-0.41868 3.03046,2.0203 0.69482,0.23161 2.43445,-0.298 3.03046,0 0.42592,0.21296 0.58423,0.79719 1.01015,1.01015 0.30117,0.15059 0.67343,0 1.01015,0 0.33672,0 0.70899,0.15059 1.01016,0 0.42591,-0.21296 0.58423,-0.79719 1.01015,-1.01015 0.60234,-0.30117 1.41796,0.30117 2.0203,0 0.42592,-0.21296 0.58424,-0.79719 1.01016,-1.01015 1.07978,-0.5399 0.94051,0.53989 2.0203,0 0.42592,-0.21296 0.58424,-0.7972 1.01015,-1.01015 0.60234,-0.30117 1.41797,0.30117 2.02031,0 0.42592,-0.21296 0.58423,-0.7972 1.01015,-1.01016 0.30117,-0.15058 0.70898,0.15059 1.01015,0 0.42592,-0.21296 0.58424,-0.79719 1.01016,-1.01015 0.30116,-0.15058 0.70898,0.15059 1.01015,0 0.42592,-0.21296 0.58423,-0.79719 1.01015,-1.01015 0.60234,-0.30117 1.41797,0.30117 2.02031,0 0.85183,-0.42592 1.11679,-1.71914 2.0203,-2.02031 0.63888,-0.21296 1.38143,0.21296 2.02031,0 0.45175,-0.15058 0.58423,-0.79719 1.01015,-1.01015 0.30117,-0.15058 0.70898,0.15059 1.01015,0 0.77165,-0.38582 2.34643,-2.80245 3.03046,-3.03046 0.63888,-0.21296 1.38143,0.21296 2.0203,0 0.90351,-0.30117 1.22788,-1.49202 2.02031,-2.0203 0.62647,-0.41765 1.39383,-0.59251 2.0203,-1.01015 0.39622,-0.26415 0.58424,-0.7972 1.01016,-1.01016 0.60233,-0.30117 1.41796,0.30117 2.0203,0 0.42592,-0.21296 0.61394,-0.74601 1.01015,-1.01015 1.25294,-0.83529 2.78767,-1.18501 4.04061,-2.0203 0.39622,-0.26415 0.61394,-0.74601 1.01016,-1.01016 1.15585,-0.77057 2.88475,-1.24973 4.04061,-2.0203 1.01763,-0.67842 1.73682,-2.30378 2.0203,-2.02031 0.51419,0.51419 -4.68805,2.8491 1.01015,0 2.32148,-1.16073 1.26739,-1.01015 3.03046,-1.01015"
         style="fill:none;fill-rule:evenodd;stroke:#e87722;stroke-width:2;stroke-linecap:butt;stroke-linejoin:miter;stroke-miterlimit:4;stroke-dasharray:none;stroke-opacity:1" />
      <ellipse
         ry="77.958542"
         rx="79.296982"
         cy="404.7916"
         cx="719.96088"
         id="path4881-8"
         style="fill:none;fill-opacity:1;stroke:#e87722;stroke-width:1;stroke-linecap:butt;stroke-miterlimit:4;stroke-dasharray:none;stroke-dashoffset:0;stroke-opacity:1" />
      <circle
         r="7.0710678"
         cy="352.26367"
         cx="73.463295"
         id="path4887-86"
         style="fill:#e87722;fill-opacity:1;stroke:none;stroke-width:2;stroke-linecap:butt;stroke-miterlimit:4;stroke-dasharray:8, 8;stroke-dashoffset:0;stroke-opacity:1" />
      <circle
         r="7.0710678"
         cy="482.57333"
         cx="130.03183"
         id="path4887-86-8"
         style="fill:#e87722;fill-opacity:1;stroke:none;stroke-width:2;stroke-linecap:butt;stroke-miterlimit:4;stroke-dasharray:8, 8;stroke-dashoffset:0;stroke-opacity:1" />
      <circle
         r="7.0710678"
         cy="360.34485"
         cx="503.78827"
         id="path4887-86-8-3"
         style="fill:#e87722;fill-opacity:1;stroke:none;stroke-width:2;stroke-linecap:butt;stroke-miterlimit:4;stroke-dasharray:8, 8;stroke-dashoffset:0;stroke-opacity:1" />
      <circle
         r="7.0710678"
         cy="471.46164"
         cx="543.1842"
         id="path4887-86-8-3-8"
         style="fill:#e87722;fill-opacity:1;stroke:none;stroke-width:2;stroke-linecap:butt;stroke-miterlimit:4;stroke-dasharray:8, 8;stroke-dashoffset:0;stroke-opacity:1" />
      <circle
         r="7.0710678"
         cy="477.52258"
         cx="753.29596"
         id="path4887-86-8-3-8-3"
         style="fill:#e87722;fill-opacity:1;stroke:none;stroke-width:2;stroke-linecap:butt;stroke-miterlimit:4;stroke-dasharray:8, 8;stroke-dashoffset:0;stroke-opacity:1" />
      <circle
         r="7.0710678"
         cy="331.05045"
         cx="690.66644"
         id="path4887-86-8-3-8-3-3"
         style="fill:#e87722;fill-opacity:1;stroke:none;stroke-width:2;stroke-linecap:butt;stroke-miterlimit:4;stroke-dasharray:8, 8;stroke-dashoffset:0;stroke-opacity:1" />
    </g>
  </g>
</svg>
